# File created by Blade
# Date/Time:  Thu Jan 22 19:18:16 2015
# Frame Rate: 120.000 fps
#------------------------------------------------------
:FULLY-SPECIFIED
:DEGREES
1353
root 0.934079 32.340077 -1.379557 16.662277 -2.957508 1.862438
RightUpLeg -13.781935 -14.233429 -8.911139
RightLeg 3.324362 -0.000000 -0.000000
RightFoot -11.792704 -4.834832 9.461221
RightToeBase 6.927421 -0.000000 -0.000000
LeftUpLeg -16.476570 12.956530 10.828461
LeftLeg 11.812360 -0.000000 -0.000000
LeftFoot -11.982879 3.780925 -26.080110
LeftToeBase 8.305803 -0.000000 -0.000000
Spine -2.185608 0.769961 -3.488340
RightShoulder -19.119984 -19.063433 -16.070013
RightArm 21.177447 2.403368 63.227761
RightForeArm -13.211626 0.000000 51.925373
RightHand 14.395738 -0.000000 1.975650
RightHandThumb1 -24.326973 -0.000000 -32.862282
LeftShoulder -27.185461 13.315998 17.477252
LeftArm 6.358578 -5.443703 -58.780099
LeftForeArm 17.370424 0.000000 56.109028
LeftHand -8.083325 0.000000 -13.696270
LeftHandThumb1 -26.253704 0.000000 33.147579
Head -22.106688 0.288959 -4.130869
1354
root 0.912791 32.334163 -1.294643 16.352194 -2.864057 1.855823
RightUpLeg -13.183599 -14.217580 -8.991391
RightLeg 3.131509 -0.000000 -0.000000
RightFoot -11.849689 -4.835651 9.623854
RightToeBase 6.920492 -0.000000 -0.000000
LeftUpLeg -15.948621 12.835164 10.991585
LeftLeg 11.634129 -0.000000 -0.000000
LeftFoot -11.982366 3.724572 -26.205238
LeftToeBase 8.358159 -0.000000 -0.000000
Spine -2.445942 0.677336 -3.352258
RightShoulder -19.384734 -19.230951 -16.019826
RightArm 20.990829 3.743019 62.849367
RightForeArm -13.161104 -0.000000 51.951227
RightHand 14.341316 -0.000000 1.665881
RightHandThumb1 -24.326973 -0.000000 -32.862282
LeftShoulder -27.354702 13.422325 17.559320
LeftArm 6.369639 -6.589075 -58.241485
LeftForeArm 17.636194 0.000000 55.912583
LeftHand -7.974285 -0.000000 -13.761404
LeftHandThumb1 -26.253704 0.000000 33.147579
Head -21.629898 0.285980 -4.002340
1355
root 0.893502 32.328989 -1.220352 16.080105 -2.834972 1.837972
RightUpLeg -12.710685 -14.121681 -9.057602
RightLeg 3.039963 -0.000000 -0.000000
RightFoot -11.924171 -4.893179 9.731096
RightToeBase 6.943341 -0.000000 -0.000000
LeftUpLeg -15.461985 12.778330 11.137259
LeftLeg 11.469323 -0.000000 -0.000000
LeftFoot -11.983911 3.661381 -26.346155
LeftToeBase 8.351039 -0.000000 -0.000000
Spine -2.712234 0.652662 -3.222342
RightShoulder -19.608459 -19.344220 -16.048188
RightArm 20.749266 5.055838 62.493314
RightForeArm -13.016790 -0.000000 51.943040
RightHand 14.409903 -0.000000 1.640609
RightHandThumb1 -24.326973 -0.000000 -32.862282
LeftShoulder -27.516124 13.534255 17.590741
LeftArm 6.417892 -7.534155 -57.537155
LeftForeArm 17.667845 -0.000000 55.720175
LeftHand -8.008883 -0.000000 -13.714689
LeftHandThumb1 -26.253704 0.000000 33.147579
Head -21.178406 0.258205 -3.890856
1356
root 0.877113 32.324491 -1.146339 15.839279 -2.760678 1.827403
RightUpLeg -12.233708 -14.069930 -9.125057
RightLeg 2.901768 -0.000000 -0.000000
RightFoot -11.991304 -4.927906 9.906595
RightToeBase 6.938051 -0.000000 -0.000000
LeftUpLeg -15.032913 12.730905 11.254988
LeftLeg 11.309516 -0.000000 -0.000000
LeftFoot -11.964184 3.600974 -26.410753
LeftToeBase 8.334263 -0.000000 -0.000000
Spine -3.002116 0.627533 -3.087665
RightShoulder -19.895136 -19.508511 -16.035092
RightArm 20.578207 6.351379 62.050015
RightForeArm -12.727039 -0.000000 51.900945
RightHand 14.592727 -0.000000 1.873519
RightHandThumb1 -24.326973 -0.000000 -32.862282
LeftShoulder -27.642893 13.660874 17.647040
LeftArm 6.490193 -8.506379 -56.890496
LeftForeArm 17.559058 0.000000 55.513756
LeftHand -7.975317 0.000000 -13.753625
LeftHandThumb1 -26.253704 0.000000 33.147579
Head -20.753571 0.235760 -3.793032
1357
root 0.860127 32.320206 -1.078588 15.637327 -2.693318 1.815346
RightUpLeg -11.815043 -13.941544 -9.192409
RightLeg 2.783605 -0.000000 -0.000000
RightFoot -12.057027 -5.022708 10.040496
RightToeBase 6.903646 -0.000000 -0.000000
LeftUpLeg -14.654950 12.688277 11.359526
LeftLeg 11.153518 -0.000000 -0.000000
LeftFoot -11.953854 3.568297 -26.468447
LeftToeBase 8.320885 -0.000000 -0.000000
Spine -3.314819 0.607047 -2.971139
RightShoulder -20.143976 -19.684211 -16.057095
RightArm 20.410980 7.613351 61.650733
RightForeArm -12.603568 -0.000000 51.830073
RightHand 14.656254 -0.000000 1.631267
RightHandThumb1 -24.326973 -0.000000 -32.862282
LeftShoulder -27.733923 13.705532 17.786255
LeftArm 6.482614 -9.360359 -56.243428
LeftForeArm 17.601564 -0.000000 55.281096
LeftHand -8.036143 -0.000000 -13.489906
LeftHandThumb1 -26.253704 0.000000 33.147579
Head -20.325320 0.167475 -3.633504
1358
root 0.845460 32.316472 -1.012556 15.441252 -2.582085 1.799318
RightUpLeg -11.379917 -13.882669 -9.241007
RightLeg 2.639184 -0.000000 -0.000000
RightFoot -12.117400 -5.092889 10.183516
RightToeBase 6.920344 -0.000000 -0.000000
LeftUpLeg -14.303067 12.588012 11.471126
LeftLeg 11.001318 -0.000000 -0.000000
LeftFoot -11.968885 3.554679 -26.550819
LeftToeBase 8.406474 -0.000000 -0.000000
Spine -3.610854 0.502427 -2.821252
RightShoulder -20.313866 -19.801972 -16.147288
RightArm 20.150886 8.839291 61.226593
RightForeArm -12.479889 -0.000000 51.803053
RightHand 14.577203 0.000000 1.620691
RightHandThumb1 -24.326973 -0.000000 -32.862282
LeftShoulder -27.877228 13.820159 17.834279
LeftArm 6.565120 -10.263977 -55.576212
LeftForeArm 17.662723 -0.000000 55.014074
LeftHand -8.022347 -0.000000 -13.210060
LeftHandThumb1 -26.253704 0.000000 33.147579
Head -19.912139 0.148255 -3.565577
1359
root 0.832953 32.312811 -0.950689 15.264737 -2.477421 1.794748
RightUpLeg -10.986428 -13.921220 -9.273048
RightLeg 2.502710 -0.000000 -0.000000
RightFoot -12.161829 -5.109593 10.276918
RightToeBase 6.920642 -0.000000 -0.000000
LeftUpLeg -13.974627 12.479237 11.561707
LeftLeg 10.843286 -0.000000 -0.000000
LeftFoot -11.985966 3.571904 -26.593487
LeftToeBase 8.456357 -0.000000 -0.000000
Spine -3.914833 0.454516 -2.696500
RightShoulder -20.537606 -19.948452 -16.225657
RightArm 19.982919 10.130358 60.867955
RightForeArm -12.414530 -0.000000 51.699003
RightHand 14.669337 -0.000000 1.464863
RightHandThumb1 -24.326973 -0.000000 -32.862282
LeftShoulder -27.913469 13.802845 18.007773
LeftArm 6.515898 -11.217108 -54.980932
LeftForeArm 17.805080 -0.000000 54.743860
LeftHand -7.963030 0.000000 -13.208855
LeftHandThumb1 -26.253704 0.000000 33.147579
Head -19.513383 0.108016 -3.497085
1360
root 0.824179 32.308925 -0.880200 15.035214 -2.395784 1.797691
RightUpLeg -10.513259 -14.008479 -9.329199
RightLeg 2.325196 -0.000000 -0.000000
RightFoot -12.166456 -5.048431 10.330739
RightToeBase 6.851371 -0.000000 -0.000000
LeftUpLeg -13.544389 12.409958 11.638724
LeftLeg 10.623234 -0.000000 -0.000000
LeftFoot -11.987464 3.593764 -26.656261
LeftToeBase 8.465041 -0.000000 -0.000000
Spine -4.162659 0.434088 -2.584570
RightShoulder -20.772788 -20.163883 -16.247324
RightArm 19.860644 11.412335 60.432498
RightForeArm -12.387693 -0.000000 51.625597
RightHand 14.585366 -0.000000 1.271298
RightHandThumb1 -24.326973 -0.000000 -32.862282
LeftShoulder -27.982242 13.855520 18.100738
LeftArm 6.578213 -12.153130 -54.330854
LeftForeArm 17.980726 -0.000000 54.471997
LeftHand -7.946322 -0.000000 -13.403961
LeftHandThumb1 -26.253704 0.000000 33.147579
Head -19.122142 0.125880 -3.478738
1361
root 0.819715 32.305225 -0.820869 14.860654 -2.328840 1.815922
RightUpLeg -10.141480 -14.003255 -9.401721
RightLeg 2.198204 -0.000000 -0.000000
RightFoot -12.216284 -5.107028 10.389692
RightToeBase 6.859970 -0.000000 -0.000000
LeftUpLeg -13.198155 12.345033 11.675480
LeftLeg 10.427731 -0.000000 -0.000000
LeftFoot -11.995305 3.638171 -26.690055
LeftToeBase 8.473535 -0.000000 -0.000000
Spine -4.438392 0.412726 -2.485089
RightShoulder -20.964827 -20.267643 -16.335768
RightArm 19.636115 12.608204 59.939015
RightForeArm -12.223417 -0.000000 51.530366
RightHand 14.617829 -0.000000 1.338624
RightHandThumb1 -24.326973 -0.000000 -32.862282
LeftShoulder -28.015858 13.858788 18.241520
LeftArm 6.549919 -13.037854 -53.698518
LeftForeArm 18.024584 -0.000000 54.198650
LeftHand -7.787566 0.000000 -13.278621
LeftHandThumb1 -26.253704 0.000000 33.147579
Head -18.741711 0.070764 -3.401864
1362
root 0.811674 32.301351 -0.757735 14.656258 -2.230601 1.798728
RightUpLeg -9.681743 -13.950733 -9.453746
RightLeg 1.984521 -0.000000 -0.000000
RightFoot -12.205736 -5.196567 10.513558
RightToeBase 6.849256 -0.000000 -0.000000
LeftUpLeg -12.807991 12.260920 11.772101
LeftLeg 10.210239 -0.000000 -0.000000
LeftFoot -12.003231 3.644130 -26.710923
LeftToeBase 8.573203 -0.000000 -0.000000
Spine -4.683725 0.360904 -2.325774
RightShoulder -21.124311 -20.359896 -16.492150
RightArm 19.420702 13.871076 59.571960
RightForeArm -12.201643 -0.000000 51.417167
RightHand 14.576534 0.000000 1.284178
RightHandThumb1 -24.326973 -0.000000 -32.862282
LeftShoulder -28.053163 13.915108 18.338037
LeftArm 6.575377 -13.887823 -53.049756
LeftForeArm 18.088015 -0.000000 53.886082
LeftHand -7.637614 -0.000000 -13.126848
LeftHandThumb1 -26.253704 0.000000 33.147579
Head -18.353850 0.039921 -3.439333
1363
root 0.809438 32.297885 -0.700389 14.484807 -2.136726 1.804786
RightUpLeg -9.306131 -14.028353 -9.499151
RightLeg 1.831592 -0.000000 -0.000000
RightFoot -12.198965 -5.223511 10.533763
RightToeBase 6.834986 -0.000000 -0.000000
LeftUpLeg -12.469240 12.211028 11.817888
LeftLeg 10.003437 -0.000000 -0.000000
LeftFoot -11.992014 3.634065 -26.700757
LeftToeBase 8.609672 -0.000000 -0.000000
Spine -4.929027 0.307884 -2.214334
RightShoulder -21.337587 -20.512452 -16.525247
RightArm 19.316757 15.045358 59.016212
RightForeArm -12.012261 -0.000000 51.230315
RightHand 14.593660 -0.000000 1.198439
RightHandThumb1 -24.326973 -0.000000 -32.862282
LeftShoulder -28.119029 13.914361 18.513623
LeftArm 6.597469 -14.648482 -52.440331
LeftForeArm 17.986624 -0.000000 53.544891
LeftHand -7.642288 0.000000 -12.993190
LeftHandThumb1 -26.253704 0.000000 33.147579
Head -18.016201 0.051539 -3.415524
1364
root 0.806756 32.294899 -0.650688 14.372929 -2.042297 1.769604
RightUpLeg -9.037176 -14.032170 -9.495959
RightLeg 1.751158 -0.000000 -0.000000
RightFoot -12.200844 -5.313438 10.573638
RightToeBase 6.782492 -0.000000 -0.000000
LeftUpLeg -12.212447 12.149864 11.901472
LeftLeg 9.830437 -0.000000 -0.000000
LeftFoot -12.001820 3.622097 -26.714798
LeftToeBase 8.609654 -0.000000 -0.000000
Spine -5.222869 0.263017 -2.041315
RightShoulder -21.513851 -20.592316 -16.642643
RightArm 19.136132 16.153053 58.437904
RightForeArm -11.694776 0.000000 51.020803
RightHand 14.678677 -0.000000 1.177876
RightHandThumb1 -24.326973 -0.000000 -32.862282
LeftShoulder -28.187340 13.959956 18.626419
LeftArm 6.690221 -15.478164 -51.863681
LeftForeArm 18.022247 -0.000000 53.183185
LeftHand -7.680754 -0.000000 -12.558047
LeftHandThumb1 -26.253704 0.000000 33.147579
Head -17.676423 0.007905 -3.420563
